#!OML:ASF H:\ManfredETheater\Project 1\Capture day 1\Session 1\subject.ASF
:FULLY-SPECIFIED
:DEGREES
215
root -6.54196 17.3531 -43.2503 -163.251 -29.1584 181.643
lowerback 13.1844 2.37454 6.00171
upperback -2.91945 4.3761 3.28622
thorax -10.4186 1.76186 -0.755382
lowerneck -19.3581 -4.91493 -4.2906
upperneck -1.13041 -6.05065 -2.00225
head 3.07959 -3.35257 -0.444201
rclavicle 1.59028e-015 3.33958e-014
rhumerus -41.5387 32.5294 -102.324
rradius 120.647
rwrist 0.803643
rhand -26.3224 8.24051
rfingers 7.12502
rthumb 0.234343 -21.7391
lclavicle 1.59028e-015 3.33958e-014
lhumerus -79.6651 -17.2158 93.7233
lradius 77.3158
lwrist 22.9257
lhand -20.0649 -11.3912
lfingers 7.12502
lthumb 6.27718 18.4958
rfemur -4.61432 -3.32649 25.2437
rtibia 34.1854
rfoot -12.4358 -7.11983
rtoes -39.6602
lfemur -55.5142 2.64934 -21.9739
ltibia 84.2596
lfoot 3.80142 9.63628
ltoes 62.3258
216
root -6.72233 17.4533 -43.7294 -163.862 -29.4572 182.15
lowerback 12.8446 2.45064 6.31004
upperback -2.96188 4.4947 3.22739
thorax -10.233 1.80297 -0.998539
lowerneck -19.5122 -5.10957 -4.48224
upperneck -0.71805 -6.22321 -1.71644
head 3.27609 -3.41769 -0.345534
rclavicle 2.46493e-014 -3.49861e-014
rhumerus -42.6523 33.3024 -103.066
rradius 121.694
rwrist 0.724686
rhand -25.9083 8.63838
rfingers 7.12502
rthumb 0.634276 -21.3404
lclavicle 2.46493e-014 -3.49861e-014
lhumerus -80.168 -17.1259 93.2319
lradius 78.3935
lwrist 22.9618
lhand -20.0792 -11.0776
lfingers 7.12502
lthumb 6.26339 18.8098
rfemur -1.69998 -3.36341 25.5447
rtibia 31.4643
rfoot -7.37571 -5.12926
rtoes -37.9525
lfemur -56.0657 2.43266 -22.1869
ltibia 81.2414
lfoot 3.10341 9.74746
ltoes 62.55
217
root -6.90569 17.5484 -44.2106 -164.459 -29.7255 182.626
lowerback 12.4786 2.51854 6.58061
upperback -2.99462 4.59107 3.16349
thorax -10.0235 1.83779 -1.21847
lowerneck -19.6438 -5.27717 -4.65426
upperneck -0.320519 -6.36855 -1.43377
head 3.46434 -3.46894 -0.24762
rclavicle 4.01545e-014 -2.8625e-014
rhumerus -43.7244 34.0244 -103.733
rradius 122.557
rwrist 0.601704
rhand -25.462 8.98381
rfingers 7.12502
rthumb 1.06532 -20.9933
lclavicle 4.01545e-014 -2.8625e-014
lhumerus -80.577 -16.972 92.7067
lradius 79.3957
lwrist 23.0686
lhand -20.1591 -10.768
lfingers 7.12502
lthumb 6.18625 19.1217
rfemur 1.12991 -3.42524 25.7835
rtibia 28.7797
rfoot -2.17749 -3.61746
rtoes -35.7227
lfemur -56.4292 2.18586 -22.3978
ltibia 77.985
lfoot 2.43079 9.82207
ltoes 62.7257
218
root -7.09029 17.6361 -44.6928 -165.025 -29.9623 183.07
lowerback 12.0845 2.58407 6.79995
upperback -3.02634 4.67177 3.09494
thorax -9.80003 1.8698 -1.40883
lowerneck -20.0172 -5.45456 -4.91135
upperneck 0.598608 -6.48984 -1.08435
head 3.3932 -3.51297 -0.128704
rclavicle 4.81059e-014 3.81667e-014
rhumerus -44.7669 34.6729 -104.324
rradius 123.257
rwrist 0.450199
rhand -25.0226 9.23826
rfingers 7.12502
rthumb 1.48975 -20.7363
lclavicle 4.81059e-014 3.81667e-014
lhumerus -80.9169 -16.7804 92.1713
lradius 80.3391
lwrist 23.2252
lhand -20.2986 -10.4832
lfingers 7.12502
lthumb 6.05152 19.4103
rfemur 3.87401 -3.43283 25.9926
rtibia 26.151
rfoot 2.66875 -2.59672
rtoes -33.4308
lfemur -56.6466 1.9202 -22.6039
ltibia 74.5176
lfoot 1.80601 9.89118
ltoes 62.8655
219
root -7.27281 17.7026 -45.1718 -165.567 -30.1602 183.487
lowerback 11.6873 2.64987 6.96728
upperback -3.05977 4.74344 3.0205
thorax -9.57997 1.9013 -1.57345
lowerneck -20.0967 -5.58524 -5.04277
upperneck 1.00351 -6.60364 -0.799746
head 3.54636 -3.54633 -0.0405643
rclavicle -2.5842e-014 6.36111e-015
rhumerus -45.7772 35.2571 -104.838
rradius 123.796
rwrist 0.285803
rhand -24.6439 9.37032
rfingers 7.12502
rthumb 1.85546 -20.6014
lclavicle -2.5842e-014 6.36111e-015
lhumerus -81.203 -16.5684 91.6319
lradius 81.2411
lwrist 23.3925
lhand -20.4486 -10.187
lfingers 7.12502
lthumb 5.9067 19.7107
rfemur 6.51176 -3.33233 26.2078
rtibia 23.6951
rfoot 6.66916 -1.97545
rtoes -31.5385
lfemur -56.805 1.64531 -22.8024
ltibia 70.9239
lfoot 1.27051 9.95581
ltoes 62.9794
220
root -7.45454 17.7663 -45.6517 -166.092 -30.3147 183.898
lowerback 11.3052 2.71865 7.09461
upperback -3.09906 4.81414 2.9414
thorax -9.37749 1.93446 -1.72039
lowerneck -20.1503 -5.70469 -5.15113
upperneck 1.40224 -6.71224 -0.513907
head 3.69405 -3.57617 0.0456587
rclavicle -4.29375e-014 -2.8625e-014
rhumerus -46.7515 35.7656 -105.276
rradius 124.188
rwrist 0.123421
rhand -24.3427 9.3695
rfingers 7.12502
rthumb 2.14634 -20.5994
lclavicle -4.29375e-014 -2.8625e-014
lhumerus -81.4482 -16.3552 91.0946
lradius 82.1188
lwrist 23.5236
lhand -20.5917 -9.93905
lfingers 7.12502
lthumb 5.76851 19.9624
rfemur 8.99887 -3.07862 26.4736
rtibia 21.5293
rfoot 9.49213 -1.72131
rtoes -30.4142
lfemur -56.8104 1.38319 -22.9641
ltibia 67.1589
lfoot 0.799381 9.99831
ltoes 63.0823
